<svg id="Layer_1" data-name="Layer 1" xmlns="http://www.w3.org/2000/svg" viewBox="0 0 512 512"><defs><style>.cls-1{fill:#e8834d;}.cls-2{fill:#d66e41;}.cls-3{fill:#365e7d;}.cls-4{fill:#2b4d66;}.cls-5{fill:#407093;}.cls-6{fill:#ffe27a;}.cls-7{fill:#f9cf58;}</style></defs><title>Artboard 11</title><path class="cls-1" d="M314.5,102.09a72.44,72.44,0,0,0-16.09-8.59,118.51,118.51,0,0,0-84.83,0,72.44,72.44,0,0,0-16.09,8.59,12.16,12.16,0,0,0-4.79,9.68v19.11l12.18,6.51,12.17-6.51V118.67c6.69-3.41,20-8.67,38.95-8.67s32.25,5.26,38.94,8.67v12.21l12.18,6.51,12.18-6.51V111.77a12.17,12.17,0,0,0-4.8-9.68Z"/><path class="cls-2" d="M192.7,130.88v13.45l12.18,6.51,12.18-6.51V130.88Z"/><path class="cls-2" d="M319.3,130.88H294.94v13.45l12.18,6.51,12.18-6.51Z"/><path class="cls-3" d="M80.31,278.3V386.49a23.26,23.26,0,0,0,23.26,23.25H408.43a23.26,23.26,0,0,0,23.26-23.25V278.3Z"/><path class="cls-4" d="M80.31,264.85V278.3C99.64,293.64,150.7,323.42,256,323.42s156.36-29.78,175.69-45.12V264.85Z"/><path class="cls-5" d="M79.31,257.11C97.82,272.18,148.81,303,256,303s158.18-30.86,176.69-45.93c5.43-4.42,8.58-17.56,8.58-24.56v-65A23.25,23.25,0,0,0,418,144.33H94a23.25,23.25,0,0,0-23.25,23.25v65C70.73,239.55,73.88,252.69,79.31,257.11Z"/><path class="cls-3" d="M432.69,250.59c-18.51,15.08-69.5,45.93-176.69,45.93S97.82,265.67,79.31,250.59a23.25,23.25,0,0,1-8.58-18V246a23.25,23.25,0,0,0,8.58,18C97.82,279.12,148.81,310,256,310S414.18,279.12,432.69,264a23.25,23.25,0,0,0,8.58-18V232.55A23.25,23.25,0,0,1,432.69,250.59Z"/><path class="cls-6" d="M256,332.35c12,0,21.78-8.93,21.78-28.3v-13.2a7.75,7.75,0,0,0-7.75-7.76H242a7.76,7.76,0,0,0-7.76,7.76v13.21C234.21,323.42,244,332.35,256,332.35Z"/><path class="cls-7" d="M256,325.84a21.79,21.79,0,0,1-21.79-21.79V317.5a21.79,21.79,0,1,0,43.57,0V304.05A21.79,21.79,0,0,1,256,325.84Z"/></svg>