<?xml version="1.0" encoding="utf-8"?>
<!-- Generator: Adobe Illustrator 24.0.0, SVG Export Plug-In . SVG Version: 6.00 Build 0)  -->
<svg version="1.1" id="Capa_1" xmlns="http://www.w3.org/2000/svg" xmlns:xlink="http://www.w3.org/1999/xlink" x="0px" y="0px"
	 viewBox="0 0 512 512" style="enable-background:new 0 0 512 512;" xml:space="preserve">
<style type="text/css">
	.st0{fill:#FF3E3A;}
	.st1{fill:#CC3245;}
	.st2{fill:#373E9F;}
	.st3{fill:#340D66;}
	.st4{fill:#FFE7B5;}
	.st5{fill:#FFD06A;}
	.st6{fill:#FF9A27;}
	.st7{fill:#FFB820;}
</style>
<path class="st0" d="M417.8,97.6l-50.1-50.1l-58.4,58.4L351,214.5L417.8,97.6z"/>
<path class="st1" d="M417.8,97.6L326,189.4l83.5,16.7l58.4-58.4L417.8,97.6z"/>
<path class="st2" d="M91.9,367.4l-26.9,83l88.4-55L91.9,367.4z"/>
<path class="st3" d="M65,450.4l83-26.9l-11.4-44.7L65,450.4z"/>
<path class="st4" d="M213.2,335.6L113,302.2l-21.2,65.2l28,28L213.2,335.6z"/>
<path class="st5" d="M119.9,395.5l28,28l65.2-21.2l-16.7-83.5L119.9,395.5z"/>
<path class="st6" d="M163.1,352.3l50.1,50.1l196.3-196.3L359.4,156l-130.8,64L163.1,352.3z"/>
<path class="st7" d="M113,302.2L309.2,106l50.1,50.1L163.1,352.3L113,302.2z"/>
</svg>
