<?xml version="1.0" encoding="utf-8"?>
<!-- Generator: Adobe Illustrator 24.0.0, SVG Export Plug-In . SVG Version: 6.00 Build 0)  -->
<svg version="1.1" id="Capa_1" xmlns="http://www.w3.org/2000/svg" xmlns:xlink="http://www.w3.org/1999/xlink" x="0px" y="0px"
	 viewBox="0 0 503.2 503.2" style="enable-background:new 0 0 503.2 503.2;" xml:space="preserve">
<style type="text/css">
	.st0{fill:#FABE2C;}
	.st1{fill:#FFA800;}
	.st2{fill:#FFFFFF;}
	.st3{fill:#FFF1A4;}
	.st4{fill:#FFE100;}
</style>
<path class="st0" d="M469.6,419.6H41.9c-13.9,0-25.2-11.3-25.2-25.2V108.8c0-13.9,11.3-25.2,25.2-25.2h427.7
	c13.9,0,25.2,11.3,25.2,25.2v285.6C494.8,408.3,483.5,419.6,469.6,419.6"/>
<path class="st1" d="M469.6,83.6h-25.2c13.9,0,25.2,11.3,25.2,25.2v285.6c0,13.9-11.3,25.2-25.2,25.2h25.2
	c13.9,0,25.2-11.3,25.2-25.2V108.8C494.8,94.8,483.5,83.6,469.6,83.6"/>
<path class="st2" d="M33.5,83.6h25.2c-13.9,0-25.2,11.3-25.2,25.2v285.6c0,13.9,11.3,25.2,25.2,25.2H33.5
	c-13.9,0-25.2-11.3-25.2-25.2V108.8C8.4,94.8,19.6,83.6,33.5,83.6"/>
<g>
	<path d="M251.6,302.3c-18.1,0-36.1-6.8-50.2-20.4L61.3,148.5c-3.4-3.2-3.5-8.5-0.3-11.9c3.2-3.4,8.5-3.5,11.9-0.3L213,269.8
		c21.7,21,55.5,21,77.2,0l140.1-133.5c3.3-3.2,8.7-3.1,11.9,0.3c3.2,3.4,3.1,8.7-0.3,11.9L301.7,281.9
		C287.7,295.5,269.7,302.3,251.6,302.3"/>
	<path d="M436.1,377.6c-2.2,0-4.4-0.8-6-2.5L320.9,263.4l-19.1,18.5c-28.2,27.2-72.3,27.2-100.4,0l-19.1-18.5L73.1,375.1
		c-3.2,3.3-8.5,3.4-11.9,0.1c-3.3-3.2-3.4-8.6-0.1-11.9l115-117.6c3.2-3.3,8.5-3.4,11.8-0.2l25.1,24.3c21.6,20.9,55.5,20.9,77.1,0
		l25.1-24.3c3.3-3.2,8.6-3.1,11.8,0.2l115,117.6c3.2,3.3,3.2,8.6-0.1,11.9C440.3,376.8,438.2,377.6,436.1,377.6"/>
	<path d="M16.8,226.4c0,4.6-3.8,8.4-8.4,8.4S0,231,0,226.4s3.8-8.4,8.4-8.4S16.8,221.7,16.8,226.4"/>
	<path d="M469.6,428H33.5C15,428,0,412.9,0,394.4V260c0-4.6,3.8-8.4,8.4-8.4s8.4,3.8,8.4,8.4v134.4c0,9.3,7.5,16.8,16.8,16.8h436.1
		c9.2,0,16.8-7.5,16.8-16.8V108.8c0-9.3-7.5-16.8-16.8-16.8H33.5c-9.2,0-16.8,7.5-16.8,16.8v84c0,4.6-3.8,8.4-8.4,8.4
		S0,197.4,0,192.8v-84c0-18.5,15-33.6,33.5-33.6h436.1c18.5,0,33.5,15.1,33.5,33.6v285.6C503.2,412.9,488.1,428,469.6,428"/>
</g>
<path class="st3" d="M-246.4,813.6h-427.7c-13.9,0-25.2-11.3-25.2-25.2V502.8c0-13.9,11.3-25.2,25.2-25.2h427.7
	c13.9,0,25.2,11.3,25.2,25.2v285.6C-221.2,802.3-232.5,813.6-246.4,813.6"/>
<path class="st1" d="M-246.4,477.6h-25.2c13.9,0,25.2,11.3,25.2,25.2v285.6c0,13.9-11.3,25.2-25.2,25.2h25.2
	c13.9,0,25.2-11.3,25.2-25.2V502.8C-221.2,488.8-232.5,477.6-246.4,477.6"/>
<path class="st2" d="M-682.5,477.6h25.2c-13.9,0-25.2,11.3-25.2,25.2v285.6c0,13.9,11.3,25.2,25.2,25.2h-25.2
	c-13.9,0-25.2-11.3-25.2-25.2V502.8C-707.6,488.8-696.4,477.6-682.5,477.6"/>
<g>
	<path d="M-464.4,696.3c-18.1,0-36.1-6.8-50.2-20.4l-140.1-133.4c-3.4-3.2-3.5-8.5-0.3-11.9c3.2-3.4,8.5-3.5,11.9-0.3L-503,663.8
		c21.7,21,55.5,21,77.2,0l140.1-133.5c3.3-3.2,8.7-3.1,11.9,0.3c3.2,3.4,3.1,8.7-0.3,11.9l-140.1,133.5
		C-428.3,689.5-446.3,696.3-464.4,696.3"/>
	<path d="M-279.9,771.6c-2.2,0-4.4-0.8-6-2.5l-109.2-111.7l-19.1,18.5c-28.2,27.2-72.3,27.2-100.4,0l-19.1-18.5l-109.2,111.7
		c-3.2,3.3-8.5,3.4-11.9,0.1c-3.3-3.2-3.4-8.6-0.1-11.9l115-117.6c3.2-3.3,8.5-3.4,11.8-0.2l25.1,24.3c21.6,20.9,55.5,20.9,77.1,0
		l25.1-24.3c3.3-3.2,8.6-3.1,11.8,0.2l115,117.6c3.2,3.3,3.2,8.6-0.1,11.9C-275.7,770.8-277.8,771.6-279.9,771.6"/>
	<path d="M-699.2,620.4c0,4.6-3.8,8.4-8.4,8.4c-4.6,0-8.4-3.8-8.4-8.4s3.8-8.4,8.4-8.4C-703,612-699.2,615.7-699.2,620.4"/>
	<path d="M-246.4,822h-436.1c-18.5,0-33.5-15.1-33.5-33.6V654c0-4.6,3.8-8.4,8.4-8.4c4.6,0,8.4,3.8,8.4,8.4v134.4
		c0,9.3,7.5,16.8,16.8,16.8h436.1c9.2,0,16.8-7.5,16.8-16.8V502.8c0-9.3-7.5-16.8-16.8-16.8h-436.1c-9.2,0-16.8,7.5-16.8,16.8v84
		c0,4.6-3.8,8.4-8.4,8.4c-4.6,0-8.4-3.8-8.4-8.4v-84c0-18.5,15-33.6,33.5-33.6h436.1c18.5,0,33.5,15.1,33.5,33.6v285.6
		C-212.8,806.9-227.9,822-246.4,822"/>
</g>
<path class="st4" d="M-194.4,362.6h-427.7c-13.9,0-25.2-11.3-25.2-25.2V51.8c0-13.9,11.3-25.2,25.2-25.2h427.7
	c13.9,0,25.2,11.3,25.2,25.2v285.6C-169.2,351.3-180.5,362.6-194.4,362.6"/>
<path class="st1" d="M-194.4,26.6h-25.2c13.9,0,25.2,11.3,25.2,25.2v285.6c0,13.9-11.3,25.2-25.2,25.2h25.2
	c13.9,0,25.2-11.3,25.2-25.2V51.8C-169.2,37.8-180.5,26.6-194.4,26.6"/>
<path class="st2" d="M-630.5,26.6h25.2c-13.9,0-25.2,11.3-25.2,25.2v285.6c0,13.9,11.3,25.2,25.2,25.2h-25.2
	c-13.9,0-25.2-11.3-25.2-25.2V51.8C-655.6,37.8-644.4,26.6-630.5,26.6"/>
<g>
	<path d="M-412.4,245.3c-18.1,0-36.1-6.8-50.2-20.4L-602.7,91.5c-3.4-3.2-3.5-8.5-0.3-11.9c3.2-3.4,8.5-3.5,11.9-0.3L-451,212.8
		c21.7,21,55.5,21,77.2,0l140.1-133.5c3.3-3.2,8.7-3.1,11.9,0.3c3.2,3.4,3.1,8.7-0.3,11.9l-140.1,133.5
		C-376.3,238.5-394.3,245.3-412.4,245.3"/>
	<path d="M-227.9,320.6c-2.2,0-4.4-0.8-6-2.5l-109.2-111.7l-19.1,18.5c-28.2,27.2-72.3,27.2-100.4,0l-19.1-18.5l-109.2,111.7
		c-3.2,3.3-8.5,3.4-11.9,0.1c-3.3-3.2-3.4-8.6-0.1-11.9l115-117.6c3.2-3.3,8.5-3.4,11.8-0.2l25.1,24.3c21.6,20.9,55.5,20.9,77.1,0
		l25.1-24.3c3.3-3.2,8.6-3.1,11.8,0.2l115,117.6c3.2,3.3,3.2,8.6-0.1,11.9C-223.7,319.8-225.8,320.6-227.9,320.6"/>
	<path d="M-647.2,169.4c0,4.6-3.8,8.4-8.4,8.4c-4.6,0-8.4-3.8-8.4-8.4s3.8-8.4,8.4-8.4C-651,161-647.2,164.7-647.2,169.4"/>
	<path d="M-194.4,371h-436.1c-18.5,0-33.5-15.1-33.5-33.6V203c0-4.6,3.8-8.4,8.4-8.4c4.6,0,8.4,3.8,8.4,8.4v134.4
		c0,9.3,7.5,16.8,16.8,16.8h436.1c9.2,0,16.8-7.5,16.8-16.8V51.8c0-9.3-7.5-16.8-16.8-16.8h-436.1c-9.2,0-16.8,7.5-16.8,16.8v84
		c0,4.6-3.8,8.4-8.4,8.4c-4.6,0-8.4-3.8-8.4-8.4v-84c0-18.5,15-33.6,33.5-33.6h436.1c18.5,0,33.5,15.1,33.5,33.6v285.6
		C-160.8,355.9-175.9,371-194.4,371"/>
</g>
</svg>
